<svg width="9" height="9" viewBox="0 0 9 9" fill="none" xmlns="http://www.w3.org/2000/svg">
<path d="M5.08741 4.50011L8.12491 1.46261C8.19317 1.3829 8.22884 1.28037 8.22479 1.1755C8.22074 1.07064 8.17727 0.971164 8.10306 0.896958C8.02885 0.822752 7.92938 0.77928 7.82451 0.775229C7.71965 0.771179 7.61712 0.806848 7.53741 0.875109L4.49991 3.91261L1.46241 0.870942C1.3827 0.802681 1.28017 0.767012 1.1753 0.771063C1.07044 0.775113 0.970962 0.818585 0.896756 0.892791C0.82255 0.966997 0.779078 1.06647 0.775028 1.17134C0.770977 1.2762 0.806647 1.37873 0.874908 1.45844L3.91241 4.50011L0.870741 7.53761C0.827124 7.57496 0.791698 7.62093 0.766689 7.67262C0.741679 7.72432 0.727625 7.78062 0.725408 7.838C0.723192 7.89539 0.732861 7.95261 0.753809 8.00608C0.774756 8.05955 0.806531 8.10811 0.847137 8.14871C0.887743 8.18932 0.936304 8.22109 0.989773 8.24204C1.04324 8.26299 1.10046 8.27266 1.15785 8.27044C1.21523 8.26822 1.27153 8.25417 1.32323 8.22916C1.37492 8.20415 1.42089 8.16873 1.45824 8.12511L4.49991 5.08761L7.53741 8.12511C7.61712 8.19337 7.71965 8.22904 7.82451 8.22499C7.92938 8.22094 8.02885 8.17747 8.10306 8.10326C8.17727 8.02905 8.22074 7.92958 8.22479 7.82471C8.22884 7.71985 8.19317 7.61732 8.12491 7.53761L5.08741 4.50011Z" fill="#315B7C"/>
</svg>
