<svg width="46" height="46" viewBox="0 0 46 46" fill="none" xmlns="http://www.w3.org/2000/svg">
<path d="M34.5001 42.1666H11.5001C10.4834 42.1666 9.50839 41.7627 8.78951 41.0438C8.07062 40.3249 7.66675 39.3499 7.66675 38.3332V7.66656C7.66675 6.6499 8.07062 5.67488 8.78951 4.95599C9.50839 4.2371 10.4834 3.83323 11.5001 3.83323H24.9167C24.9339 3.83098 24.9513 3.83098 24.9685 3.83323H24.98C24.9981 3.83889 25.0167 3.84274 25.0356 3.84473C25.2042 3.85623 25.371 3.88881 25.532 3.94248H25.6125C25.6479 3.96724 25.6812 3.9948 25.7122 4.0249C25.921 4.11774 26.1112 4.24762 26.2737 4.40823L37.7738 15.9082C37.9344 16.0707 38.0643 16.261 38.1571 16.4698C38.1738 16.5113 38.1885 16.5535 38.2012 16.5963L38.2203 16.65C38.274 16.8091 38.3047 16.9758 38.3142 17.1445C38.3159 17.1636 38.3204 17.1823 38.3277 17.2001V17.2116C38.3307 17.2241 38.3327 17.237 38.3334 17.2499V38.3332C38.3334 39.3499 37.9295 40.3249 37.2107 41.0438C36.4918 41.7627 35.5167 42.1666 34.5001 42.1666ZM29.7889 26.8332C29.3704 26.8118 28.9532 26.8963 28.5759 27.0789C28.1987 27.2615 27.8736 27.5362 27.6307 27.8778C27.0881 28.7677 26.8312 29.8025 26.8947 30.8429V32.5219C26.8408 33.5507 27.1226 34.5691 27.6978 35.4237C28.2288 36.0907 29.0491 36.4587 29.9001 36.4166C30.4195 36.4223 30.9351 36.3207 31.4162 36.1214L31.4564 36.1041C31.8973 35.9092 32.2841 35.6099 32.5834 35.2321V31.3815H29.7678V32.8036H30.9178V34.5152L30.7722 34.6302C30.5384 34.7878 30.2603 34.8663 29.9787 34.8545C29.7598 34.8697 29.541 34.8241 29.3464 34.7226C29.1519 34.6211 28.9893 34.4677 28.8766 34.2795C28.6178 33.6962 28.5041 33.059 28.545 32.4222V30.7298C28.5143 30.1222 28.6217 29.5166 28.8612 28.9569C28.9518 28.7796 29.0917 28.6324 29.2642 28.5331C29.4367 28.4338 29.6343 28.3866 29.833 28.3972C30.1397 28.3723 30.4406 28.4931 30.6437 28.725C30.8603 29.0911 30.9715 29.5108 30.9696 29.9363H32.5834C32.5892 29.087 32.3128 28.2598 31.7976 27.5846C31.5369 27.3222 31.2226 27.1193 30.8763 26.9896C30.53 26.8599 30.1597 26.8066 29.7908 26.8332H29.7889ZM21.6277 30.1797L24.0408 36.2881H25.6834V26.9616H24.0447V33.0854L21.6239 26.9616H19.9717V36.2881H21.6239V30.1797H21.6277ZM13.4167 26.9616V36.2881H15.0689V33.0087H16.171C16.9147 33.0471 17.6392 32.7576 18.149 32.2152C18.6512 31.6076 18.9061 30.8352 18.8639 30.0494C18.8988 29.2425 18.6408 28.4501 18.1375 27.8184C17.9019 27.5374 17.6052 27.3142 17.2699 27.1656C16.9347 27.0171 16.5699 26.9474 16.2036 26.9616H13.4167ZM24.9167 7.66656V17.2499H34.5001L24.9167 7.66656ZM16.2036 31.4332H15.0689V28.5295H16.2189C16.3639 28.5318 16.5056 28.5722 16.6301 28.6465C16.7545 28.7209 16.8573 28.8266 16.9281 28.9531C17.1197 29.2904 17.2117 29.6737 17.1926 30.0609C17.2158 30.4214 17.1253 30.78 16.9338 31.0863C16.85 31.1996 16.7395 31.2906 16.6121 31.3511C16.4847 31.4116 16.3444 31.4398 16.2036 31.4332Z" fill="#FF5561"/>
</svg>
