<svg width="45" height="45" viewBox="0 0 45 45" fill="none" xmlns="http://www.w3.org/2000/svg">
<path d="M37.5557 12.687C37.8193 12.9507 37.9688 13.3066 37.9688 13.6802V40.7812C37.9688 41.5591 37.3403 42.1875 36.5625 42.1875H8.4375C7.65967 42.1875 7.03125 41.5591 7.03125 40.7812V4.21875C7.03125 3.44092 7.65967 2.8125 8.4375 2.8125H27.1011C27.4746 2.8125 27.835 2.96191 28.0986 3.22559L37.5557 12.687ZM34.7256 14.3262L26.4551 6.05566V14.3262H34.7256ZM25.2835 20.9988L22.5932 25.4944L19.8765 20.9971C19.8295 20.9194 19.7633 20.8552 19.6842 20.8106C19.6051 20.766 19.5159 20.7426 19.4251 20.7426H17.7359C17.6363 20.7426 17.5388 20.7708 17.4546 20.8239C17.396 20.8609 17.3452 20.909 17.3052 20.9656C17.2652 21.0221 17.2367 21.0861 17.2214 21.1536C17.2061 21.2212 17.2043 21.2912 17.216 21.3595C17.2278 21.4278 17.2528 21.4931 17.2898 21.5517L20.9083 27.283L17.2411 33.1181C17.1882 33.2022 17.1602 33.2995 17.1602 33.3989C17.1602 33.5387 17.2158 33.6729 17.3147 33.7718C17.4136 33.8707 17.5477 33.9262 17.6875 33.9262H19.2019C19.2918 33.9262 19.3803 33.9032 19.4588 33.8593C19.5374 33.8155 19.6034 33.7523 19.6506 33.6757L22.406 29.2166L25.1437 33.6749C25.1909 33.7517 25.257 33.8151 25.3358 33.8592C25.4145 33.9032 25.5031 33.9263 25.5933 33.9262H27.2404C27.3413 33.9262 27.4402 33.8972 27.5251 33.8427C27.5834 33.8053 27.6338 33.7568 27.6733 33.7C27.7129 33.6431 27.7408 33.579 27.7556 33.5114C27.7704 33.4437 27.7717 33.3738 27.7594 33.3056C27.7472 33.2375 27.7216 33.1724 27.6842 33.1141L24.0003 27.3771L27.7488 21.5556C27.8035 21.4704 27.8325 21.3712 27.8323 21.27C27.8323 21.1301 27.7768 20.996 27.6779 20.8971C27.579 20.7982 27.4448 20.7426 27.305 20.7426H25.7361C25.645 20.7427 25.5555 20.7664 25.4762 20.8113C25.397 20.8563 25.3307 20.9211 25.2839 20.9993L25.2835 20.9988Z" fill="#FF5561"/>
</svg>
