<svg width="45" height="45" viewBox="0 0 45 45" fill="none" xmlns="http://www.w3.org/2000/svg">
<path d="M37.5557 12.687C37.8193 12.9507 37.9688 13.3066 37.9688 13.6802V40.7812C37.9688 41.5591 37.3403 42.1875 36.5625 42.1875H8.4375C7.65967 42.1875 7.03125 41.5591 7.03125 40.7812V4.21875C7.03125 3.44092 7.65967 2.8125 8.4375 2.8125H27.1011C27.4746 2.8125 27.835 2.96191 28.0986 3.22559L37.5557 12.687ZM34.7256 14.3262L26.4551 6.05566V14.3262H34.7256ZM20.5897 33.3984V29.3757H23.1943C25.8561 29.3757 27.5977 27.6333 27.5977 25.0638C27.5977 22.5053 25.8583 20.7422 23.204 20.7422H18.6328C18.493 20.7422 18.3588 20.7977 18.2599 20.8966C18.161 20.9955 18.1055 21.1297 18.1055 21.2695V33.3984C18.1055 33.5383 18.161 33.6724 18.2599 33.7713C18.3588 33.8702 18.493 33.9258 18.6328 33.9258H20.0624C20.2022 33.9258 20.3363 33.8702 20.4352 33.7713C20.5341 33.6724 20.5897 33.5383 20.5897 33.3984ZM20.5897 27.2755H22.1234C24.2249 27.2755 25.0761 26.7073 25.0761 25.0638C25.0761 23.6553 24.2798 22.8612 22.8845 22.8612H20.5897V27.2755Z" fill="#FF5561"/>
</svg>
