<svg width="46" height="46" viewBox="0 0 46 46" fill="none" xmlns="http://www.w3.org/2000/svg">
<path d="M26.8334 3.8335H11.5001C10.4834 3.8335 9.50839 4.23736 8.78951 4.95625C8.07062 5.67514 7.66675 6.65017 7.66675 7.66683V38.3335C7.66675 39.3502 8.07062 40.3252 8.78951 41.0441C9.50839 41.763 10.4834 42.1668 11.5001 42.1668H34.5001C35.5167 42.1668 36.4918 41.763 37.2107 41.0441C37.9295 40.3252 38.3334 39.3502 38.3334 38.3335V15.3335L26.8334 3.8335ZM17.7082 31.5217C17.7082 33.7297 16.6521 34.5002 14.952 34.5002C14.5495 34.5002 14.0205 34.4312 13.6774 34.3142L13.871 32.9017C14.1144 32.9822 14.4249 33.0397 14.7699 33.0397C15.5059 33.0397 15.964 32.7062 15.964 31.4987V26.6246H17.7101V31.5217H17.7082ZM24.0217 30.8221C23.4217 31.3837 22.5401 31.6386 21.5051 31.6386C21.2751 31.6386 21.0681 31.6252 20.9071 31.6022V34.3717H19.1706V26.7281C19.9545 26.6101 20.7469 26.5569 21.5396 26.569C22.6187 26.569 23.3892 26.7741 23.9047 27.1881C24.4012 27.5791 24.7347 28.2231 24.7347 28.9821C24.7347 29.7411 24.4797 30.3851 24.0217 30.8221ZM32.3227 34.0172C31.7861 34.2012 30.7607 34.4542 29.7372 34.4542C28.3246 34.4542 27.3011 34.0977 26.5881 33.4077C25.877 32.7407 25.486 31.7306 25.4956 30.5921C25.509 28.0161 27.3797 26.546 29.9212 26.546C30.9197 26.546 31.6922 26.7434 32.0697 26.9255L31.7037 28.3266C31.2782 28.1426 30.7511 27.9931 29.9001 27.9931C28.4415 27.9931 27.3356 28.8211 27.3356 30.5001C27.3356 32.0967 28.338 33.0397 29.7717 33.0397C30.1761 33.0397 30.4962 32.9937 30.6361 32.9227V31.3012H29.4401V29.9347H32.3227V34.0172ZM26.8334 17.2502H24.9167V7.66683L34.5001 17.2502H26.8334Z" fill="#FF5561"/>
<path d="M21.6296 27.8911C21.2731 27.8911 21.0316 27.9256 20.907 27.9601V30.2467C21.0546 30.2812 21.2405 30.2908 21.4954 30.2908C22.4231 30.2908 22.9981 29.8193 22.9981 29.0277C22.9981 28.3147 22.5055 27.8911 21.6296 27.8911Z" fill="#FF5561"/>
</svg>
