<svg width="45" height="45" viewBox="0 0 45 45" fill="none" xmlns="http://www.w3.org/2000/svg">
<path d="M37.5557 12.687C37.8193 12.9507 37.9688 13.3066 37.9688 13.6802V40.7812C37.9688 41.5591 37.3403 42.1875 36.5625 42.1875H8.4375C7.65967 42.1875 7.03125 41.5591 7.03125 40.7812V4.21875C7.03125 3.44092 7.65967 2.8125 8.4375 2.8125H27.1011C27.4746 2.8125 27.835 2.96191 28.0986 3.22559L37.5557 12.687ZM34.7256 14.3262L26.4551 6.05566V14.3262H34.7256ZM22.5 24.8774L24.8208 33.5347C24.8508 33.6469 24.917 33.7461 25.0092 33.8168C25.1014 33.8876 25.2143 33.9259 25.3305 33.9258H26.7267C26.8427 33.9259 26.9556 33.8877 27.0478 33.8172C27.1399 33.7466 27.2062 33.6476 27.2364 33.5355L30.5046 21.4066C30.5165 21.3619 30.5224 21.3158 30.5222 21.2695C30.5222 21.1297 30.4667 20.9955 30.3678 20.8966C30.2689 20.7977 30.1347 20.7422 29.9949 20.7422H28.4317C28.3124 20.7421 28.1965 20.7826 28.1031 20.8569C28.0098 20.9312 27.9443 21.035 27.9176 21.1513L25.9058 29.9008L23.719 21.1417C23.6905 21.0276 23.6247 20.9263 23.532 20.8539C23.4393 20.7815 23.3251 20.7422 23.2075 20.7422H21.7925C21.6748 20.7422 21.5606 20.7816 21.4679 20.8541C21.3752 20.9265 21.3094 21.0279 21.281 21.1421L19.0986 29.8833L17.0728 21.1509C17.0459 21.0349 16.9805 20.9314 16.8873 20.8573C16.7941 20.7831 16.6786 20.7427 16.5595 20.7426H15.0042C14.9581 20.7426 14.9122 20.7487 14.8676 20.7606C14.7326 20.797 14.6175 20.8854 14.5477 21.0066C14.4779 21.1277 14.4591 21.2716 14.4954 21.4066L17.7548 33.5355C17.7849 33.6475 17.8511 33.7464 17.9431 33.8169C18.0351 33.8874 18.1478 33.9257 18.2637 33.9258H19.6695C19.7856 33.9258 19.8985 33.8874 19.9905 33.8167C20.0826 33.746 20.1488 33.6468 20.1788 33.5347L22.4996 24.8774H22.5Z" fill="#FF5561"/>
</svg>
