<svg width="25" height="25" viewBox="0 0 25 25" fill="none" xmlns="http://www.w3.org/2000/svg">
<path fill-rule="evenodd" clip-rule="evenodd" d="M21.3379 3.66211C18.9789 1.2989 15.8401 0 12.5 0C9.15985 0 6.02112 1.2989 3.66211 3.66211C1.29852 6.02055 0 9.16023 0 12.5C0 15.8398 1.29852 18.9795 3.66211 21.3379C6.0257 23.7011 9.15985 25 12.5 25C15.8401 25 18.9789 23.7011 21.3379 21.3379C23.7015 18.9747 25 15.8398 25 12.5C25 9.16023 23.7015 6.02055 21.3379 3.66211ZM12.5 21.875C7.3288 21.875 3.125 17.6708 3.125 12.5C3.125 7.32918 7.3288 3.125 12.5 3.125C17.6712 3.125 21.875 7.32918 21.875 12.5C21.875 17.6708 17.6712 21.875 12.5 21.875ZM9.375 17.1875C9.17511 17.1875 8.97369 17.1093 8.82263 16.958C8.51593 16.6553 8.51593 16.1572 8.82263 15.8545L11.1664 13.5107C11.0199 13.203 10.9375 12.8613 10.9375 12.5C10.9375 11.4796 11.5921 10.6104 12.5 10.288V5.46875C12.5 5.03902 12.851 4.6875 13.2812 4.6875C13.71 4.6875 14.0625 5.03902 14.0625 5.46875V10.288C14.9704 10.6104 15.625 11.4796 15.625 12.5C15.625 13.7939 14.5752 14.8438 13.2812 14.8438C12.9196 14.8438 12.5778 14.7608 12.2696 14.6143L9.92584 16.958C9.77478 17.1093 9.57489 17.1875 9.375 17.1875Z" fill="#FF5561"/>
</svg>
