<svg width="25" height="26" viewBox="0 0 25 26" fill="none" xmlns="http://www.w3.org/2000/svg">
<path d="M12.4847 20.3125H14.0472V9.375H12.4847V10.9375H10.9222V12.5H12.4847V20.3125Z" fill="#FF5561"/>
<path fill-rule="evenodd" clip-rule="evenodd" d="M7.79724 10.9375V9.375H4.67224V10.9375H7.79724ZM7.79724 10.9375H9.35974V14.0137H7.79724V10.9375Z" fill="#FF5561"/>
<path d="M7.79724 14.0625H4.78516V15.625H7.79724V18.7012H9.35974V15.625H7.79724V14.0625Z" fill="#FF5561"/>
<path d="M7.79724 20.3125V18.75H4.67224V20.3125H7.79724Z" fill="#FF5561"/>
<path fill-rule="evenodd" clip-rule="evenodd" d="M24.971 7.78313C24.971 6.07414 23.584 4.6875 21.875 4.6875H21.8597V1.5625C21.8597 0.69828 21.1624 0 20.2972 0C19.4336 0 18.7347 0.69828 18.7347 1.5625V4.6875H14.0472V1.5625C14.0472 0.69828 13.3499 0 12.4847 0C11.6211 0 10.9222 0.69828 10.9222 1.5625V4.6875H6.23474V1.5625C6.23474 0.69828 5.53741 0 4.67224 0C3.80859 0 3.10974 0.69828 3.10974 1.5625V4.6875H3.09601C1.38702 4.6875 0 6.07414 0 7.78313V21.665C0 23.374 1.38702 25.005 3.09601 25.005H20.2835L24.971 20.3175V7.78313ZM21.846 15.625H15.596V21.875H3.22266C3.17383 21.8164 3.125 21.7236 3.125 21.6602V7.8125H21.846V15.625ZM18.721 21.875L21.846 18.75H18.721V21.875Z" fill="#FF5561"/>
</svg>
